<svg xmlns="http://www.w3.org/2000/svg" width="400" height="864" viewBox="0 0 400 864"><rect width="400" height="864" fill="#F5F8FB"/><defs><radialGradient id="t3gl" gradientUnits="userSpaceOnUse" cx="155.2" cy="236.0" r="468.0"><stop offset="0" stop-color="#FCACA5" stop-opacity=".24"/><stop offset="1" stop-color="#FCACA5" stop-opacity="0"/></radialGradient><clipPath id="t3cp"><rect x="60.0" y="80.0" width="280.0" height="600.0"/></clipPath></defs><g clip-path="url(#t3cp)"><rect x="60.0" y="80.0" width="280.0" height="600.0" fill="#050C18"/><rect x="60.0" y="80.0" width="280.0" height="600.0" fill="url(#t3gl)"/><path d="M117.6 80.0L117.6 680.0" fill="none" stroke="#FCACA5" stroke-width="1.6" stroke-opacity=".10" stroke-linejoin="round" stroke-linecap="round"/><path d="M200.0 80.0L200.0 680.0" fill="none" stroke="#FCACA5" stroke-width="1.6" stroke-opacity=".10" stroke-linejoin="round" stroke-linecap="round"/><path d="M282.4 80.0L282.4 680.0" fill="none" stroke="#FCACA5" stroke-width="1.6" stroke-opacity=".10" stroke-linejoin="round" stroke-linecap="round"/><path d="M60.0 132.9L340.0 132.9" fill="none" stroke="#FCACA5" stroke-width="1.6" stroke-opacity=".10" stroke-linejoin="round" stroke-linecap="round"/><path d="M60.0 215.3L340.0 215.3" fill="none" stroke="#FCACA5" stroke-width="1.6" stroke-opacity=".10" stroke-linejoin="round" stroke-linecap="round"/><path d="M60.0 297.6L340.0 297.6" fill="none" stroke="#FCACA5" stroke-width="1.6" stroke-opacity=".10" stroke-linejoin="round" stroke-linecap="round"/><path d="M60.0 380.0L340.0 380.0" fill="none" stroke="#FCACA5" stroke-width="1.6" stroke-opacity=".10" stroke-linejoin="round" stroke-linecap="round"/><path d="M60.0 462.4L340.0 462.4" fill="none" stroke="#FCACA5" stroke-width="1.6" stroke-opacity=".10" stroke-linejoin="round" stroke-linecap="round"/><path d="M60.0 544.7L340.0 544.7" fill="none" stroke="#FCACA5" stroke-width="1.6" stroke-opacity=".10" stroke-linejoin="round" stroke-linecap="round"/><path d="M60.0 627.1L340.0 627.1" fill="none" stroke="#FCACA5" stroke-width="1.6" stroke-opacity=".10" stroke-linejoin="round" stroke-linecap="round"/><rect x="72.6" y="101.0" width="254.8" height="558.0" rx="28.0" fill="none" stroke="#FCACA5" stroke-width="2.8" stroke-opacity=".40"/><rect x="89.4" y="131.0" width="128.8" height="199.5" rx="8.4" fill="#FCACA5" fill-opacity=".09" stroke="#FCACA5" stroke-width="4.5" stroke-opacity=".90"/><rect x="98.4" y="149.0" width="61.8" height="71.8" rx="3.4" fill="#7FD8C0" fill-opacity=".22" stroke="#7FD8C0" stroke-width="2.8" stroke-opacity=".95"/><rect x="110.8" y="163.3" width="37.1" height="43.1" rx="2.2" fill="none" stroke="#7FD8C0" stroke-width="2.0" stroke-opacity=".60"/><rect x="169.3" y="149.0" width="39.9" height="43.9" rx="2.8" fill="#FCACA5" fill-opacity=".14" stroke="#FCACA5" stroke-width="2.8" stroke-opacity=".78"/><rect x="169.3" y="210.8" width="39.9" height="43.9" rx="2.8" fill="#FCACA5" fill-opacity=".14" stroke="#FCACA5" stroke-width="2.8" stroke-opacity=".78"/><rect x="98.4" y="242.7" width="46.4" height="69.8" rx="2.8" fill="#FCACA5" fill-opacity=".14" stroke="#FCACA5" stroke-width="2.8" stroke-opacity=".78"/><rect x="236.4" y="131.0" width="82.6" height="129.0" rx="16.8" fill="#7FD8C0" fill-opacity=".18" stroke="#7FD8C0" stroke-width="4.5" stroke-opacity=".92"/><circle cx="269.4" cy="174.0" r="18.1" fill="none" stroke="#7FD8C0" stroke-width="2.8" stroke-opacity=".95"/><circle cx="269.4" cy="174.0" r="6.9" fill="#FCACA5" fill-opacity=".65"/><circle cx="269.4" cy="217.0" r="18.1" fill="none" stroke="#7FD8C0" stroke-width="2.8" stroke-opacity=".95"/><circle cx="269.4" cy="217.0" r="6.9" fill="#FCACA5" fill-opacity=".65"/><circle cx="300.8" cy="236.8" r="7.2" fill="#FCACA5" fill-opacity=".35" stroke="#FCACA5" stroke-width="2.0" stroke-opacity=".80"/><rect x="88.0" y="388.9" width="224.0" height="228.1" rx="12.6" fill="#FCACA5" fill-opacity=".16" stroke="#FCACA5" stroke-width="5.2" stroke-opacity=".95"/><rect x="181.0" y="381.7" width="19.0" height="7.3" rx="2.2" fill="#FCACA5" fill-opacity=".9"/><rect x="209.0" y="381.7" width="19.0" height="7.3" rx="2.2" fill="#FCACA5" fill-opacity=".9"/><path d="M114.9 465.0L285.1 465.0" fill="none" stroke="#FCACA5" stroke-width="2.8" stroke-opacity=".55" stroke-linejoin="round" stroke-linecap="round"/><path d="M114.9 541.0L285.1 541.0" fill="none" stroke="#FCACA5" stroke-width="2.8" stroke-opacity=".55" stroke-linejoin="round" stroke-linecap="round"/><path d="M116.0 330.5L116.0 355.0L152.4 355.0L152.4 388.9" fill="none" stroke="#7FD8C0" stroke-width="2.8" stroke-opacity=".70" stroke-linejoin="round" stroke-linecap="round"/><path d="M191.6 330.5L191.6 373.7L258.8 373.7L258.8 388.9" fill="none" stroke="#7FD8C0" stroke-width="2.8" stroke-opacity=".70" stroke-linejoin="round" stroke-linecap="round"/><path d="M256.0 260.0L256.0 287.0L218.2 287.0" fill="none" stroke="#7FD8C0" stroke-width="2.8" stroke-opacity=".70" stroke-linejoin="round" stroke-linecap="round"/><path d="M306.4 260.0L306.4 372.1L284.0 372.1L284.0 388.9" fill="none" stroke="#7FD8C0" stroke-width="2.8" stroke-opacity=".55" stroke-linejoin="round" stroke-linecap="round"/><rect x="111.2" y="325.7" width="9.5" height="9.5" rx="2.7" fill="#7FD8C0" fill-opacity=".85"/><rect x="186.8" y="325.7" width="9.5" height="9.5" rx="2.7" fill="#7FD8C0" fill-opacity=".85"/><rect x="147.6" y="384.2" width="9.5" height="9.5" rx="2.7" fill="#7FD8C0" fill-opacity=".85"/><rect x="254.0" y="384.2" width="9.5" height="9.5" rx="2.7" fill="#7FD8C0" fill-opacity=".85"/><rect x="301.6" y="255.2" width="9.5" height="9.5" rx="2.7" fill="#7FD8C0" fill-opacity=".85"/><rect x="279.2" y="384.2" width="9.5" height="9.5" rx="2.7" fill="#7FD8C0" fill-opacity=".85"/><rect x="176.2" y="629.0" width="47.6" height="22.2" rx="11.1" fill="#FCACA5" fill-opacity=".28" stroke="#FCACA5" stroke-width="2.8" stroke-opacity=".75"/><circle cx="83.8" cy="117.2" r="7.3" fill="none" stroke="#FCACA5" stroke-width="2.8" stroke-opacity=".60"/><circle cx="83.8" cy="117.2" r="2.5" fill="#FCACA5" fill-opacity=".70"/><circle cx="316.2" cy="117.2" r="7.3" fill="none" stroke="#FCACA5" stroke-width="2.8" stroke-opacity=".60"/><circle cx="316.2" cy="117.2" r="2.5" fill="#FCACA5" fill-opacity=".70"/><circle cx="83.8" cy="647.0" r="7.3" fill="none" stroke="#FCACA5" stroke-width="2.8" stroke-opacity=".60"/><circle cx="83.8" cy="647.0" r="2.5" fill="#FCACA5" fill-opacity=".70"/><circle cx="316.2" cy="647.0" r="7.3" fill="none" stroke="#FCACA5" stroke-width="2.8" stroke-opacity=".60"/><circle cx="316.2" cy="647.0" r="2.5" fill="#FCACA5" fill-opacity=".70"/></g><rect x="60" y="80" width="280" height="600" fill="none" stroke="#FF00FF" stroke-width="1"/></svg>