<svg xmlns="http://www.w3.org/2000/svg" width="1664" height="864" viewBox="0 0 1664 864"><rect width="100%" height="100%" fill="#222"/><g transform="translate(0,0)"><defs><linearGradient id="dkS_s0" x1="0" y1="0" x2="0.21" y2="1"><stop offset="0" stop-color="#e4e9ee"/><stop offset="1" stop-color="#caced2"/></linearGradient><linearGradient id="dkG_s0" x1="0" y1="0" x2="0.58" y2="1"><stop offset="0" stop-color="#142b46"/><stop offset="1" stop-color="#081525"/></linearGradient><linearGradient id="dkN_s0" x1="0" y1="0" x2="1" y2="0"><stop offset="0" stop-color="#a3a8ae"/><stop offset="0.42" stop-color="#dde0e4"/><stop offset="1" stop-color="#8b9097"/></linearGradient><linearGradient id="dkF_s0" x1="0" y1="0" x2="0" y2="1"><stop offset="0" stop-color="#dde0e4"/><stop offset="1" stop-color="#8b9097"/></linearGradient><clipPath id="dkC_s0"><rect x="13.9" y="258.8" width="372.2" height="247.9" rx="5.0"/></clipPath></defs><rect width="400" height="864" fill="#0E253C"/><path d="M168.4,536.7H231.6L245.3,606.9H154.7Z" fill="url(#dkN_s0)"/><rect x="138.1" y="596.3" width="123.9" height="21.2" rx="9.6" fill="url(#dkF_s0)"/><rect x="145.5" y="600.1" width="109.0" height="2.8" rx="1.4" fill="#F5F8FB" opacity="0.22"/><rect x="1.6" y="246.5" width="396.8" height="293.7" rx="10.7" fill="url(#dkS_s0)" stroke="#4d535c" stroke-width="1.1" stroke-opacity="0.35"/><rect x="8.3" y="253.2" width="383.4" height="259.2" rx="5.9" fill="#050C18"/><rect class="screen" x="13.9" y="258.8" width="372.2" height="247.9" rx="5.0" fill="url(#dkG_s0)"/><rect x="13.9" y="258.8" width="372.2" height="247.9" rx="5.0" fill="none" stroke="#050C18" stroke-width="1.1" stroke-opacity="0.45"/><circle cx="200.0" cy="256.0" r="1.9" fill="#c7d3e0" opacity="0.35"/><path d="M12.3,247.6H387.7" stroke="#F5F8FB" stroke-width="1.1" stroke-linecap="round" fill="none" opacity="0.40"/><path d="M8.3,512.4H391.7" stroke="#050C18" stroke-width="1.1" fill="none" opacity="0.16"/><rect x="0.5" y="0.5" width="399" height="863" fill="none" stroke="#FF00FF" stroke-width="1"/></g><g transform="translate(416,0)"><defs><linearGradient id="dkS_s1" x1="0" y1="0" x2="0.21" y2="1"><stop offset="0" stop-color="#425061"/><stop offset="1" stop-color="#212b39"/></linearGradient><linearGradient id="dkG_s1" x1="0" y1="0" x2="0.58" y2="1"><stop offset="0" stop-color="#132943"/><stop offset="1" stop-color="#091626"/></linearGradient><linearGradient id="dkN_s1" x1="0" y1="0" x2="1" y2="0"><stop offset="0" stop-color="#131b29"/><stop offset="0.42" stop-color="#313d4d"/><stop offset="1" stop-color="#0b121f"/></linearGradient><linearGradient id="dkF_s1" x1="0" y1="0" x2="0" y2="1"><stop offset="0" stop-color="#313d4d"/><stop offset="1" stop-color="#0b121f"/></linearGradient><clipPath id="dkC_s1"><rect x="12.6" y="269.6" width="374.9" height="235.0" rx="4.7"/></clipPath></defs><rect width="400" height="864" fill="#0E253C"/><path d="M171.8,531.0H228.2L238.6,597.6H161.4Z" fill="url(#dkN_s1)"/><rect x="139.1" y="589.9" width="121.8" height="15.5" rx="7.0" fill="url(#dkF_s1)"/><rect x="146.4" y="592.7" width="107.2" height="2.0" rx="1.0" fill="#F5F8FB" opacity="0.22"/><rect x="1.6" y="258.6" width="396.8" height="275.7" rx="13.1" fill="url(#dkS_s1)" stroke="#4d535c" stroke-width="1.1" stroke-opacity="0.35"/><rect x="7.1" y="264.1" width="385.8" height="246.0" rx="7.2" fill="#050C18"/><rect class="screen" x="12.6" y="269.6" width="374.9" height="235.0" rx="4.7" fill="url(#dkG_s1)"/><g clip-path="url(#dkC_s1)"><polygon points="12.6,504.6 143.7,269.6 194.4,269.6 65.0,504.6" fill="#F5F8FB" opacity="0.05"/></g><rect x="12.6" y="269.6" width="374.9" height="235.0" rx="4.7" fill="none" stroke="#050C18" stroke-width="1.1" stroke-opacity="0.45"/><circle cx="200.0" cy="266.9" r="1.9" fill="#c7d3e0" opacity="0.35"/><path d="M14.7,259.7H385.3" stroke="#F5F8FB" stroke-width="1.1" stroke-linecap="round" fill="none" opacity="0.40"/><path d="M7.1,510.1H392.9" stroke="#050C18" stroke-width="1.1" fill="none" opacity="0.16"/><rect x="0.5" y="0.5" width="399" height="863" fill="none" stroke="#FF00FF" stroke-width="1"/></g><g transform="translate(832,0)"><defs><linearGradient id="dkS_s2" x1="0" y1="0" x2="0.16" y2="1"><stop offset="0" stop-color="#425061"/><stop offset="1" stop-color="#212b39"/></linearGradient><linearGradient id="dkG_s2" x1="0" y1="0" x2="0.68" y2="1"><stop offset="0" stop-color="#122740"/><stop offset="1" stop-color="#091829"/></linearGradient><linearGradient id="dkN_s2" x1="0" y1="0" x2="1" y2="0"><stop offset="0" stop-color="#131b29"/><stop offset="0.42" stop-color="#313d4d"/><stop offset="1" stop-color="#0b121f"/></linearGradient><linearGradient id="dkF_s2" x1="0" y1="0" x2="0" y2="1"><stop offset="0" stop-color="#313d4d"/><stop offset="1" stop-color="#0b121f"/></linearGradient><clipPath id="dkC_s2"><rect x="13.7" y="261.6" width="372.6" height="249.3" rx="5.0"/></clipPath></defs><rect width="400" height="864" fill="#0E253C"/><path d="M171.6,540.5H228.4L239.0,606.7H161.0Z" fill="url(#dkN_s2)"/><rect x="137.8" y="598.9" width="124.5" height="15.6" rx="7.0" fill="url(#dkF_s2)"/><rect x="145.2" y="601.7" width="109.6" height="2.0" rx="1.0" fill="#F5F8FB" opacity="0.22"/><rect x="1.6" y="249.5" width="396.8" height="294.5" rx="11.6" fill="url(#dkS_s2)" stroke="#4d535c" stroke-width="1.1" stroke-opacity="0.35"/><rect x="8.3" y="256.2" width="383.4" height="260.2" rx="6.4" fill="#050C18"/><rect class="screen" x="13.7" y="261.6" width="372.6" height="249.3" rx="5.0" fill="url(#dkG_s2)"/><g clip-path="url(#dkC_s2)"><polygon points="13.7,511.0 180.1,261.6 232.9,261.6 65.9,511.0" fill="#F5F8FB" opacity="0.04"/></g><rect x="13.7" y="261.6" width="372.6" height="249.3" rx="5.0" fill="none" stroke="#050C18" stroke-width="1.1" stroke-opacity="0.45"/><circle cx="200.0" cy="258.9" r="1.8" fill="#c7d3e0" opacity="0.35"/><path d="M13.2,250.6H386.8" stroke="#F5F8FB" stroke-width="1.1" stroke-linecap="round" fill="none" opacity="0.40"/><path d="M8.3,516.4H391.7" stroke="#050C18" stroke-width="1.1" fill="none" opacity="0.16"/><rect x="0.5" y="0.5" width="399" height="863" fill="none" stroke="#FF00FF" stroke-width="1"/></g><g transform="translate(1248,0)"><defs><linearGradient id="dkS_s3" x1="0" y1="0" x2="0.27" y2="1"><stop offset="0" stop-color="#425061"/><stop offset="1" stop-color="#212b39"/></linearGradient><linearGradient id="dkG_s3" x1="0" y1="0" x2="0.46" y2="1"><stop offset="0" stop-color="#142c47"/><stop offset="1" stop-color="#09182a"/></linearGradient><linearGradient id="dkN_s3" x1="0" y1="0" x2="1" y2="0"><stop offset="0" stop-color="#131b29"/><stop offset="0.42" stop-color="#313d4d"/><stop offset="1" stop-color="#0b121f"/></linearGradient><linearGradient id="dkF_s3" x1="0" y1="0" x2="0" y2="1"><stop offset="0" stop-color="#313d4d"/><stop offset="1" stop-color="#0b121f"/></linearGradient><clipPath id="dkC_s3"><rect x="12.0" y="273.9" width="376.0" height="236.6" rx="4.7"/></clipPath></defs><rect width="400" height="864" fill="#0E253C"/><path d="M168.3,538.7H231.7L239.3,593.1H160.7Z" fill="url(#dkN_s3)"/><rect x="128.8" y="585.7" width="142.4" height="14.8" rx="6.7" fill="url(#dkF_s3)"/><rect x="137.3" y="588.4" width="125.3" height="1.9" rx="1.0" fill="#F5F8FB" opacity="0.22"/><rect x="1.6" y="263.4" width="396.8" height="278.6" rx="13.4" fill="url(#dkS_s3)" stroke="#4d535c" stroke-width="1.1" stroke-opacity="0.35"/><rect x="7.2" y="269.0" width="385.7" height="246.4" rx="7.4" fill="#050C18"/><rect class="screen" x="12.0" y="273.9" width="376.0" height="236.6" rx="4.7" fill="url(#dkG_s3)"/><g clip-path="url(#dkC_s3)"><polygon points="12.0,510.5 136.7,273.9 206.6,273.9 64.7,510.5" fill="#F5F8FB" opacity="0.06"/></g><rect x="12.0" y="273.9" width="376.0" height="236.6" rx="4.7" fill="none" stroke="#050C18" stroke-width="1.1" stroke-opacity="0.45"/><circle cx="200.0" cy="271.4" r="1.7" fill="#c7d3e0" opacity="0.35"/><path d="M15.0,264.6H385.0" stroke="#F5F8FB" stroke-width="1.1" stroke-linecap="round" fill="none" opacity="0.40"/><path d="M7.2,515.4H392.8" stroke="#050C18" stroke-width="1.1" fill="none" opacity="0.16"/><rect x="0.5" y="0.5" width="399" height="863" fill="none" stroke="#FF00FF" stroke-width="1"/></g></svg>