<svg xmlns="http://www.w3.org/2000/svg" width="400" height="864" viewBox="0 0 400 864">
<defs><linearGradient id="dkS_t1" x1="0" y1="0" x2="0.23" y2="1"><stop offset="0" stop-color="#425061"/><stop offset="1" stop-color="#212b39"/></linearGradient><linearGradient id="dkG_t1" x1="0" y1="0" x2="0.53" y2="1"><stop offset="0" stop-color="#122740"/><stop offset="1" stop-color="#091728"/></linearGradient><linearGradient id="dkN_t1" x1="0" y1="0" x2="1" y2="0"><stop offset="0" stop-color="#131b29"/><stop offset="0.42" stop-color="#313d4d"/><stop offset="1" stop-color="#0b121f"/></linearGradient><linearGradient id="dkF_t1" x1="0" y1="0" x2="0" y2="1"><stop offset="0" stop-color="#313d4d"/><stop offset="1" stop-color="#0b121f"/></linearGradient><clipPath id="dkC_t1"><rect x="14.4" y="266.2" width="371.1" height="245.0" rx="4.9"/></clipPath></defs>
<rect x="0" y="0" width="400" height="864" fill="#0E253C"/>
<path d="M166.4,540.7H233.6L243.4,603.5H156.6Z" fill="url(#dkN_t1)"/><rect x="131.3" y="596.4" width="137.5" height="14.3" rx="6.4" fill="url(#dkF_t1)"/><rect x="139.5" y="598.9" width="121.0" height="1.9" rx="0.9" fill="#F5F8FB" opacity="0.22"/><rect x="1.6" y="253.3" width="396.8" height="290.9" rx="12.5" fill="url(#dkS_t1)" stroke="#4d535c" stroke-width="1.1" stroke-opacity="0.35"/><rect x="8.2" y="259.9" width="383.7" height="257.5" rx="6.9" fill="#050C18"/><rect class="screen" x="14.4" y="266.2" width="371.1" height="245.0" rx="4.9" fill="url(#dkG_t1)"/><g clip-path="url(#dkC_t1)"><polygon points="14.4,511.2 141.5,266.2 202.9,266.2 66.4,511.2" fill="#F5F8FB" opacity="0.05"/></g><rect x="14.4" y="266.2" width="371.1" height="245.0" rx="4.9" fill="none" stroke="#050C18" stroke-width="1.1" stroke-opacity="0.45"/><circle cx="200.0" cy="263.0" r="2.1" fill="#c7d3e0" opacity="0.35"/><path d="M14.1,254.4H385.9" stroke="#F5F8FB" stroke-width="1.1" stroke-linecap="round" fill="none" opacity="0.40"/><path d="M8.2,517.4H391.8" stroke="#050C18" stroke-width="1.1" fill="none" opacity="0.16"/>
<rect x="0.5" y="0.5" width="399" height="863" fill="none" stroke="#FF00FF" stroke-width="1" stroke-dasharray="6 4"/>
</svg>